solid OpenSCAD_Model
  facet normal 0 0 -1
    outer loop
      vertex -4.45057 -0.945998 0
      vertex -4.45057 0.945998 0
      vertex -3.68103 -2.67442 0
    endloop
  endfacet
  facet normal 0 0 -1
    outer loop
      vertex -3.68103 -2.67442 0
      vertex -4.45057 0.945998 0
      vertex -3.68103 2.67442 0
    endloop
  endfacet
  facet normal 0 0 -1
    outer loop
      vertex -3.68103 -2.67442 0
      vertex -3.68103 2.67442 0
      vertex -2.275 3.94042 0
    endloop
  endfacet
  facet normal 0 0 -1
    outer loop
      vertex -1.76777 1.76777 0
      vertex -2.275 3.94042 0
      vertex -0.475605 4.52508 0
    endloop
  endfacet
  facet normal 0 0 -1
    outer loop
      vertex 0 2.5 0
      vertex -0.475605 4.52508 0
      vertex 1.40603 4.32731 0
    endloop
  endfacet
  facet normal 0 0 -1
    outer loop
      vertex 1.76777 1.76777 0
      vertex 3.04454 3.38131 0
      vertex 4.15663 1.85065 0
    endloop
  endfacet
  facet normal 0 0 -1
    outer loop
      vertex 2.5 0 0
      vertex 4.15663 1.85065 0
      vertex 4.55 0 0
    endloop
  endfacet
  facet normal 0 0 -1
    outer loop
      vertex 1.76777 -1.76777 0
      vertex 4.55 0 0
      vertex 4.15663 -1.85065 0
    endloop
  endfacet
  facet normal 0 0 -1
    outer loop
      vertex 0 -2.5 0
      vertex 4.15663 -1.85065 0
      vertex 3.04454 -3.38131 0
    endloop
  endfacet
  facet normal 0 0 -1
    outer loop
      vertex -3.68103 -2.67442 0
      vertex 3.04454 -3.38131 0
      vertex 1.40603 -4.32731 0
    endloop
  endfacet
  facet normal 0 0 -1
    outer loop
      vertex -3.68103 -2.67442 0
      vertex 1.40603 -4.32731 0
      vertex -0.475605 -4.52508 0
    endloop
  endfacet
  facet normal 0 0 -1
    outer loop
      vertex -3.68103 -2.67442 0
      vertex -0.475605 -4.52508 0
      vertex -2.275 -3.94042 0
    endloop
  endfacet
  facet normal 0 0 -1
    outer loop
      vertex -3.68103 -2.67442 0
      vertex -2.275 3.94042 0
      vertex -2.5 0 0
    endloop
  endfacet
  facet normal 0 0 -1
    outer loop
      vertex 0 -2.5 0
      vertex -3.68103 -2.67442 0
      vertex -1.76777 -1.76777 0
    endloop
  endfacet
  facet normal 0 0 -1
    outer loop
      vertex 1.76777 -1.76777 0
      vertex 4.15663 -1.85065 0
      vertex 0 -2.5 0
    endloop
  endfacet
  facet normal 0 0 -1
    outer loop
      vertex -3.68103 -2.67442 0
      vertex 0 -2.5 0
      vertex 3.04454 -3.38131 0
    endloop
  endfacet
  facet normal 0 0 -1
    outer loop
      vertex 1.76777 1.76777 0
      vertex 4.15663 1.85065 0
      vertex 2.5 0 0
    endloop
  endfacet
  facet normal 0 0 -1
    outer loop
      vertex 2.5 0 0
      vertex 4.55 0 0
      vertex 1.76777 -1.76777 0
    endloop
  endfacet
  facet normal 0 0 -1
    outer loop
      vertex -2.5 0 0
      vertex -2.275 3.94042 0
      vertex -1.76777 1.76777 0
    endloop
  endfacet
  facet normal 0 0 -1
    outer loop
      vertex -1.76777 -1.76777 0
      vertex -3.68103 -2.67442 0
      vertex -2.5 0 0
    endloop
  endfacet
  facet normal 0 0 -1
    outer loop
      vertex 0 2.5 0
      vertex 1.40603 4.32731 0
      vertex 3.04454 3.38131 0
    endloop
  endfacet
  facet normal 0 0 -1
    outer loop
      vertex -1.76777 1.76777 0
      vertex -0.475605 4.52508 0
      vertex 0 2.5 0
    endloop
  endfacet
  facet normal 0 0 -1
    outer loop
      vertex 0 2.5 0
      vertex 3.04454 3.38131 0
      vertex 1.76777 1.76777 0
    endloop
  endfacet
  facet normal -1 0 0
    outer loop
      vertex -4.45057 -0.945998 0
      vertex -4.45057 -0.945998 10
      vertex -4.45057 0.945998 0
    endloop
  endfacet
  facet normal -1 0 0
    outer loop
      vertex -4.45057 0.945998 0
      vertex -4.45057 -0.945998 10
      vertex -4.45057 0.945998 10
    endloop
  endfacet
  facet normal -0.913545 -0.406737 0
    outer loop
      vertex -4.45057 -0.945998 0
      vertex -3.68103 -2.67442 0
      vertex -4.45057 -0.945998 10
    endloop
  endfacet
  facet normal -0.913545 -0.406737 0
    outer loop
      vertex -4.45057 -0.945998 10
      vertex -3.68103 -2.67442 0
      vertex -3.68103 -2.67442 10
    endloop
  endfacet
  facet normal -0.669131 -0.743145 0
    outer loop
      vertex -3.68103 -2.67442 10
      vertex -3.68103 -2.67442 0
      vertex -2.275 -3.94042 0
    endloop
  endfacet
  facet normal -0.669131 -0.743145 0
    outer loop
      vertex -2.275 -3.94042 10
      vertex -3.68103 -2.67442 10
      vertex -2.275 -3.94042 0
    endloop
  endfacet
  facet normal -0.309017 -0.951056 0
    outer loop
      vertex -2.275 -3.94042 10
      vertex -2.275 -3.94042 0
      vertex -0.475605 -4.52508 0
    endloop
  endfacet
  facet normal -0.309017 -0.951056 0
    outer loop
      vertex -0.475605 -4.52508 10
      vertex -2.275 -3.94042 10
      vertex -0.475605 -4.52508 0
    endloop
  endfacet
  facet normal 0.104529 -0.994522 0
    outer loop
      vertex -0.475605 -4.52508 10
      vertex -0.475605 -4.52508 0
      vertex 1.40603 -4.32731 0
    endloop
  endfacet
  facet normal 0.104529 -0.994522 0
    outer loop
      vertex 1.40603 -4.32731 10
      vertex -0.475605 -4.52508 10
      vertex 1.40603 -4.32731 0
    endloop
  endfacet
  facet normal 0.5 -0.866025 0
    outer loop
      vertex 1.40603 -4.32731 10
      vertex 1.40603 -4.32731 0
      vertex 3.04454 -3.38131 0
    endloop
  endfacet
  facet normal 0.5 -0.866025 0
    outer loop
      vertex 3.04454 -3.38131 10
      vertex 1.40603 -4.32731 10
      vertex 3.04454 -3.38131 0
    endloop
  endfacet
  facet normal 0.809017 -0.587785 0
    outer loop
      vertex 3.04454 -3.38131 10
      vertex 3.04454 -3.38131 0
      vertex 4.15663 -1.85065 0
    endloop
  endfacet
  facet normal 0.809017 -0.587785 0
    outer loop
      vertex 4.15663 -1.85065 10
      vertex 3.04454 -3.38131 10
      vertex 4.15663 -1.85065 0
    endloop
  endfacet
  facet normal 0.978148 -0.207912 0
    outer loop
      vertex 4.3587 -0.9 2.41797
      vertex 4.15663 -1.85065 0
      vertex 4.55 0 0
    endloop
  endfacet
  facet normal 0.978148 -0.207912 0
    outer loop
      vertex 4.3587 -0.9 3.73198
      vertex 4.1674 -1.8 6.4
      vertex 4.3587 -0.9 2.41797
    endloop
  endfacet
  facet normal 0.978148 -0.207912 0
    outer loop
      vertex 4.1674 -1.8 6.4
      vertex 4.15663 -1.85065 0
      vertex 4.3587 -0.9 2.41797
    endloop
  endfacet
  facet normal 0.978148 -0.207912 0
    outer loop
      vertex 4.1674 -1.8 6.4
      vertex 4.1674 -1.8 10
      vertex 4.15663 -1.85065 10
    endloop
  endfacet
  facet normal 0.978148 -0.207912 0
    outer loop
      vertex 4.15663 -1.85065 10
      vertex 4.15663 -1.85065 0
      vertex 4.1674 -1.8 6.4
    endloop
  endfacet
  facet normal 0.978148 -0.207912 0
    outer loop
      vertex 4.55 0 6.4
      vertex 4.3587 -0.9 3.73198
      vertex 4.55 0 3.89505
    endloop
  endfacet
  facet normal 0.978148 -0.207912 0
    outer loop
      vertex 4.55 0 2.58104
      vertex 4.3587 -0.9 2.41797
      vertex 4.55 0 0
    endloop
  endfacet
  facet normal 0.978148 -0.207912 0
    outer loop
      vertex 4.55 0 6.4
      vertex 4.1674 -1.8 6.4
      vertex 4.3587 -0.9 3.73198
    endloop
  endfacet
  facet normal 0.978148 0.207912 0
    outer loop
      vertex 4.1674 1.8 6.4
      vertex 4.15663 1.85065 0
      vertex 4.15663 1.85065 10
    endloop
  endfacet
  facet normal 0.978148 0.207912 0
    outer loop
      vertex 4.3587 0.9 2.41797
      vertex 4.15663 1.85065 0
      vertex 4.1674 1.8 6.4
    endloop
  endfacet
  facet normal 0.978148 0.207912 0
    outer loop
      vertex 4.3587 0.9 2.41797
      vertex 4.55 0 2.58104
      vertex 4.55 0 0
    endloop
  endfacet
  facet normal 0.978148 0.207912 0
    outer loop
      vertex 4.55 0 0
      vertex 4.15663 1.85065 0
      vertex 4.3587 0.9 2.41797
    endloop
  endfacet
  facet normal 0.978148 0.207912 0
    outer loop
      vertex 4.55 0 3.89505
      vertex 4.3587 0.9 3.73198
      vertex 4.1674 1.8 6.4
    endloop
  endfacet
  facet normal 0.978148 0.207912 0
    outer loop
      vertex 4.1674 1.8 10
      vertex 4.1674 1.8 6.4
      vertex 4.15663 1.85065 10
    endloop
  endfacet
  facet normal 0.978148 0.207912 0
    outer loop
      vertex 4.3587 0.9 3.73198
      vertex 4.3587 0.9 2.41797
      vertex 4.1674 1.8 6.4
    endloop
  endfacet
  facet normal 0.978148 0.207912 0
    outer loop
      vertex 4.1674 1.8 6.4
      vertex 4.55 0 6.4
      vertex 4.55 0 3.89505
    endloop
  endfacet
  facet normal 0.809017 0.587785 0
    outer loop
      vertex 4.15663 1.85065 0
      vertex 3.04454 3.38131 0
      vertex 3.04454 3.38131 10
    endloop
  endfacet
  facet normal 0.809017 0.587785 0
    outer loop
      vertex 4.15663 1.85065 10
      vertex 4.15663 1.85065 0
      vertex 3.04454 3.38131 10
    endloop
  endfacet
  facet normal 0.5 0.866025 0
    outer loop
      vertex 1.40603 4.32731 0
      vertex 1.40603 4.32731 10
      vertex 3.04454 3.38131 0
    endloop
  endfacet
  facet normal 0.5 0.866025 0
    outer loop
      vertex 3.04454 3.38131 0
      vertex 1.40603 4.32731 10
      vertex 3.04454 3.38131 10
    endloop
  endfacet
  facet normal 0.104529 0.994522 0
    outer loop
      vertex -0.475605 4.52508 0
      vertex -0.475605 4.52508 10
      vertex 1.40603 4.32731 0
    endloop
  endfacet
  facet normal 0.104529 0.994522 0
    outer loop
      vertex 1.40603 4.32731 0
      vertex -0.475605 4.52508 10
      vertex 1.40603 4.32731 10
    endloop
  endfacet
  facet normal -0.309017 0.951056 0
    outer loop
      vertex -2.275 3.94042 0
      vertex -2.275 3.94042 10
      vertex -0.475605 4.52508 0
    endloop
  endfacet
  facet normal -0.309017 0.951056 0
    outer loop
      vertex -0.475605 4.52508 0
      vertex -2.275 3.94042 10
      vertex -0.475605 4.52508 10
    endloop
  endfacet
  facet normal -0.669131 0.743145 0
    outer loop
      vertex -3.68103 2.67442 0
      vertex -3.68103 2.67442 10
      vertex -2.275 3.94042 0
    endloop
  endfacet
  facet normal -0.669131 0.743145 0
    outer loop
      vertex -2.275 3.94042 0
      vertex -3.68103 2.67442 10
      vertex -2.275 3.94042 10
    endloop
  endfacet
  facet normal -0.913545 0.406737 0
    outer loop
      vertex -4.45057 0.945998 0
      vertex -4.45057 0.945998 10
      vertex -3.68103 2.67442 0
    endloop
  endfacet
  facet normal -0.913545 0.406737 0
    outer loop
      vertex -3.68103 2.67442 0
      vertex -4.45057 0.945998 10
      vertex -3.68103 2.67442 10
    endloop
  endfacet
  facet normal 0.92388 -0.382683 0
    outer loop
      vertex -1.76777 1.76777 0
      vertex -1.76777 1.76777 2
      vertex -2.5 0 2
    endloop
  endfacet
  facet normal 0.92388 -0.382683 0
    outer loop
      vertex -2.5 0 0
      vertex -1.76777 1.76777 0
      vertex -2.5 0 2
    endloop
  endfacet
  facet normal 0.92388 0.382683 0
    outer loop
      vertex -2.5 0 2
      vertex -1.76777 -1.76777 2
      vertex -1.76777 -1.76777 0
    endloop
  endfacet
  facet normal 0.92388 0.382683 0
    outer loop
      vertex -2.5 0 0
      vertex -2.5 0 2
      vertex -1.76777 -1.76777 0
    endloop
  endfacet
  facet normal 0.382683 -0.92388 0
    outer loop
      vertex 0 2.5 0
      vertex 0 2.5 2
      vertex -1.76777 1.76777 2
    endloop
  endfacet
  facet normal 0.382683 -0.92388 0
    outer loop
      vertex -1.76777 1.76777 0
      vertex 0 2.5 0
      vertex -1.76777 1.76777 2
    endloop
  endfacet
  facet normal -0.382683 -0.92388 0
    outer loop
      vertex 1.76777 1.76777 0
      vertex 1.76777 1.76777 2
      vertex 0 2.5 2
    endloop
  endfacet
  facet normal -0.382683 -0.92388 0
    outer loop
      vertex 0 2.5 0
      vertex 1.76777 1.76777 0
      vertex 0 2.5 2
    endloop
  endfacet
  facet normal -0.92388 -0.382683 0
    outer loop
      vertex 2.5 0 2
      vertex 1.76777 1.76777 2
      vertex 2.5 0 0
    endloop
  endfacet
  facet normal -0.92388 -0.382683 0
    outer loop
      vertex 2.5 0 0
      vertex 1.76777 1.76777 2
      vertex 1.76777 1.76777 0
    endloop
  endfacet
  facet normal -0.92388 0.382683 0
    outer loop
      vertex 2.5 0 2
      vertex 2.5 0 0
      vertex 1.76777 -1.76777 2
    endloop
  endfacet
  facet normal -0.92388 0.382683 0
    outer loop
      vertex 1.76777 -1.76777 2
      vertex 2.5 0 0
      vertex 1.76777 -1.76777 0
    endloop
  endfacet
  facet normal -0.382683 0.92388 0
    outer loop
      vertex 1.76777 -1.76777 2
      vertex 1.76777 -1.76777 0
      vertex 0 -2.5 2
    endloop
  endfacet
  facet normal -0.382683 0.92388 0
    outer loop
      vertex 0 -2.5 2
      vertex 1.76777 -1.76777 0
      vertex 0 -2.5 0
    endloop
  endfacet
  facet normal 0.382683 0.92388 0
    outer loop
      vertex 0 -2.5 2
      vertex 0 -2.5 0
      vertex -1.76777 -1.76777 2
    endloop
  endfacet
  facet normal 0.382683 0.92388 0
    outer loop
      vertex -1.76777 -1.76777 2
      vertex 0 -2.5 0
      vertex -1.76777 -1.76777 0
    endloop
  endfacet
  facet normal 0 0 1
    outer loop
      vertex -4.45057 0.945998 10
      vertex -4.45057 -0.945998 10
      vertex -3.68103 -2.67442 10
    endloop
  endfacet
  facet normal 0 0 1
    outer loop
      vertex -3.07439 -1.775 10
      vertex -4.45057 0.945998 10
      vertex -2.275 -3.94042 10
    endloop
  endfacet
  facet normal 0 0 1
    outer loop
      vertex -2.275 -3.94042 10
      vertex -4.45057 0.945998 10
      vertex -3.68103 -2.67442 10
    endloop
  endfacet
  facet normal 0 0 1
    outer loop
      vertex 3.55 0 10
      vertex 3.07439 -1.775 10
      vertex 4.15663 -1.85065 10
    endloop
  endfacet
  facet normal 0 0 1
    outer loop
      vertex -2.275 3.94042 10
      vertex -4.45057 0.945998 10
      vertex -0.475605 4.52508 10
    endloop
  endfacet
  facet normal 0 0 1
    outer loop
      vertex -3.68103 2.67442 10
      vertex -4.45057 0.945998 10
      vertex -2.275 3.94042 10
    endloop
  endfacet
  facet normal 0 0 1
    outer loop
      vertex -0.475605 -4.52508 10
      vertex -3.07439 -1.775 10
      vertex -2.275 -3.94042 10
    endloop
  endfacet
  facet normal 0 0 1
    outer loop
      vertex 1.775 3.07439 10
      vertex 3.07439 1.775 10
      vertex 3.04454 3.38131 10
    endloop
  endfacet
  facet normal 0 0 1
    outer loop
      vertex -0.475605 4.52508 10
      vertex -4.45057 0.945998 10
      vertex -3.07439 1.775 10
    endloop
  endfacet
  facet normal 0 0 1
    outer loop
      vertex -0.475605 4.52508 10
      vertex -1.775 3.07439 10
      vertex 1.40603 4.32731 10
    endloop
  endfacet
  facet normal 0 0 1
    outer loop
      vertex -0.475605 4.52508 10
      vertex -3.07439 1.775 10
      vertex -1.775 3.07439 10
    endloop
  endfacet
  facet normal 0 0 1
    outer loop
      vertex -1.775 3.07439 10
      vertex 0 3.55 10
      vertex 1.40603 4.32731 10
    endloop
  endfacet
  facet normal 0 0 1
    outer loop
      vertex 1.40603 4.32731 10
      vertex 1.775 3.07439 10
      vertex 3.04454 3.38131 10
    endloop
  endfacet
  facet normal 0 0 1
    outer loop
      vertex 0 3.55 10
      vertex 1.775 3.07439 10
      vertex 1.40603 4.32731 10
    endloop
  endfacet
  facet normal 0 0 1
    outer loop
      vertex 3.04454 3.38131 10
      vertex 3.07439 1.775 10
      vertex 4.15663 1.85065 10
    endloop
  endfacet
  facet normal 0 0 1
    outer loop
      vertex 10.5 1.8 10
      vertex 3.55 0 10
      vertex 10.5 -1.8 10
    endloop
  endfacet
  facet normal 0 0 1
    outer loop
      vertex 4.15663 -1.85065 10
      vertex 3.07439 -1.775 10
      vertex 3.04454 -3.38131 10
    endloop
  endfacet
  facet normal 0 0 1
    outer loop
      vertex 3.04454 -3.38131 10
      vertex 1.775 -3.07439 10
      vertex 1.40603 -4.32731 10
    endloop
  endfacet
  facet normal 0 0 1
    outer loop
      vertex 1.40603 -4.32731 10
      vertex 0 -3.55 10
      vertex -0.475605 -4.52508 10
    endloop
  endfacet
  facet normal 0 0 1
    outer loop
      vertex -0.475605 -4.52508 10
      vertex -1.775 -3.07439 10
      vertex -3.07439 -1.775 10
    endloop
  endfacet
  facet normal 0 0 1
    outer loop
      vertex 3.55 0 10
      vertex 4.15663 -1.85065 10
      vertex 4.1674 -1.8 10
    endloop
  endfacet
  facet normal 0 0 1
    outer loop
      vertex -3.07439 -1.775 10
      vertex -3.55 0 10
      vertex -4.45057 0.945998 10
    endloop
  endfacet
  facet normal 0 0 1
    outer loop
      vertex 3.07439 1.775 10
      vertex 4.1674 1.8 10
      vertex 4.15663 1.85065 10
    endloop
  endfacet
  facet normal 0 0 1
    outer loop
      vertex 3.07439 1.775 10
      vertex 10.5 1.8 10
      vertex 4.1674 1.8 10
    endloop
  endfacet
  facet normal 0 0 1
    outer loop
      vertex 3.07439 1.775 10
      vertex 3.55 0 10
      vertex 10.5 1.8 10
    endloop
  endfacet
  facet normal 0 0 1
    outer loop
      vertex 3.55 0 10
      vertex 4.1674 -1.8 10
      vertex 10.5 -1.8 10
    endloop
  endfacet
  facet normal 0 0 1
    outer loop
      vertex 1.775 -3.07439 10
      vertex 0 -3.55 10
      vertex 1.40603 -4.32731 10
    endloop
  endfacet
  facet normal 0 0 1
    outer loop
      vertex 3.07439 -1.775 10
      vertex 1.775 -3.07439 10
      vertex 3.04454 -3.38131 10
    endloop
  endfacet
  facet normal 0 0 1
    outer loop
      vertex 0 -3.55 10
      vertex -1.775 -3.07439 10
      vertex -0.475605 -4.52508 10
    endloop
  endfacet
  facet normal 0 0 1
    outer loop
      vertex -3.55 0 10
      vertex -3.07439 1.775 10
      vertex -4.45057 0.945998 10
    endloop
  endfacet
  facet normal 0 -1 0
    outer loop
      vertex 4.1674 -1.8 10
      vertex 4.1674 -1.8 6.4
      vertex 10.5 -1.8 6.4
    endloop
  endfacet
  facet normal 0 -1 0
    outer loop
      vertex 10.5 -1.8 10
      vertex 4.1674 -1.8 10
      vertex 10.5 -1.8 6.4
    endloop
  endfacet
  facet normal 0 0 -1
    outer loop
      vertex 9.03007 0.9 6.4
      vertex 10.5 -1.8 6.4
      vertex 9.03007 -0.9 6.4
    endloop
  endfacet
  facet normal 0 0 -1
    outer loop
      vertex 7.48858 0.9 6.4
      vertex 4.1674 1.8 6.4
      vertex 10.5 1.8 6.4
    endloop
  endfacet
  facet normal 0 0 -1
    outer loop
      vertex 9.03007 0.9 6.4
      vertex 7.48858 0.9 6.4
      vertex 10.5 1.8 6.4
    endloop
  endfacet
  facet normal 0 0 -1
    outer loop
      vertex 4.1674 -1.8 6.4
      vertex 4.55 0 6.4
      vertex 7.48858 -0.9 6.4
    endloop
  endfacet
  facet normal 0 0 -1
    outer loop
      vertex 4.1674 -1.8 6.4
      vertex 7.48858 -0.9 6.4
      vertex 10.5 -1.8 6.4
    endloop
  endfacet
  facet normal 0 0 -1
    outer loop
      vertex 10.5 -1.8 6.4
      vertex 9.03007 0.9 6.4
      vertex 10.5 1.8 6.4
    endloop
  endfacet
  facet normal 0 0 -1
    outer loop
      vertex 7.48858 -0.9 6.4
      vertex 4.55 0 6.4
      vertex 4.1674 1.8 6.4
    endloop
  endfacet
  facet normal 0 0 -1
    outer loop
      vertex 7.48858 -0.9 6.4
      vertex 4.1674 1.8 6.4
      vertex 7.48858 0.9 6.4
    endloop
  endfacet
  facet normal 0 0 -1
    outer loop
      vertex 9.03007 -0.9 6.4
      vertex 10.5 -1.8 6.4
      vertex 7.48858 -0.9 6.4
    endloop
  endfacet
  facet normal -0.648723 0 0.761025
    outer loop
      vertex 4.55 0 3.89505
      vertex 4.3587 -0.9 3.73198
      vertex 7.48858 -0.9 6.4
    endloop
  endfacet
  facet normal -0.648723 0 0.761025
    outer loop
      vertex 4.3587 0.9 3.73198
      vertex 4.55 0 3.89505
      vertex 7.48858 0.9 6.4
    endloop
  endfacet
  facet normal -0.648723 0 0.761025
    outer loop
      vertex 7.48858 0.9 6.4
      vertex 4.55 0 3.89505
      vertex 7.48858 -0.9 6.4
    endloop
  endfacet
  facet normal 0 -1 0
    outer loop
      vertex 4.3587 -0.9 3.73198
      vertex 4.3587 -0.9 2.41797
      vertex 9.03007 -0.9 6.4
    endloop
  endfacet
  facet normal 0 -1 0
    outer loop
      vertex 7.48858 -0.9 6.4
      vertex 4.3587 -0.9 3.73198
      vertex 9.03007 -0.9 6.4
    endloop
  endfacet
  facet normal 0.648723 0 -0.761025
    outer loop
      vertex 4.3587 -0.9 2.41797
      vertex 4.55 0 2.58104
      vertex 9.03007 -0.9 6.4
    endloop
  endfacet
  facet normal 0.648723 0 -0.761025
    outer loop
      vertex 9.03007 -0.9 6.4
      vertex 4.55 0 2.58104
      vertex 4.3587 0.9 2.41797
    endloop
  endfacet
  facet normal 0.648723 0 -0.761025
    outer loop
      vertex 9.03007 -0.9 6.4
      vertex 4.3587 0.9 2.41797
      vertex 9.03007 0.9 6.4
    endloop
  endfacet
  facet normal 0 1 0
    outer loop
      vertex 4.3587 0.9 2.41797
      vertex 4.3587 0.9 3.73198
      vertex 9.03007 0.9 6.4
    endloop
  endfacet
  facet normal 0 1 0
    outer loop
      vertex 9.03007 0.9 6.4
      vertex 4.3587 0.9 3.73198
      vertex 7.48858 0.9 6.4
    endloop
  endfacet
  facet normal 0 1 0
    outer loop
      vertex 4.1674 1.8 6.4
      vertex 4.1674 1.8 10
      vertex 10.5 1.8 6.4
    endloop
  endfacet
  facet normal 0 1 0
    outer loop
      vertex 10.5 1.8 6.4
      vertex 4.1674 1.8 10
      vertex 10.5 1.8 10
    endloop
  endfacet
  facet normal 0 0 1
    outer loop
      vertex -3.07439 -1.775 2
      vertex -1.775 -3.07439 2
      vertex 0 -3.55 2
    endloop
  endfacet
  facet normal 0 0 1
    outer loop
      vertex 0 -2.5 2
      vertex -3.07439 -1.775 2
      vertex 1.775 -3.07439 2
    endloop
  endfacet
  facet normal 0 0 1
    outer loop
      vertex 1.775 -3.07439 2
      vertex -3.07439 -1.775 2
      vertex 0 -3.55 2
    endloop
  endfacet
  facet normal 0 0 1
    outer loop
      vertex 0 -2.5 2
      vertex -1.76777 -1.76777 2
      vertex -3.07439 -1.775 2
    endloop
  endfacet
  facet normal 0 0 1
    outer loop
      vertex -3.07439 1.775 2
      vertex -3.07439 -1.775 2
      vertex -1.775 3.07439 2
    endloop
  endfacet
  facet normal 0 0 1
    outer loop
      vertex -3.55 0 2
      vertex -3.07439 -1.775 2
      vertex -3.07439 1.775 2
    endloop
  endfacet
  facet normal 0 0 1
    outer loop
      vertex 0 2.5 2
      vertex 1.76777 1.76777 2
      vertex 1.775 3.07439 2
    endloop
  endfacet
  facet normal 0 0 1
    outer loop
      vertex -1.775 3.07439 2
      vertex -3.07439 -1.775 2
      vertex -2.5 0 2
    endloop
  endfacet
  facet normal 0 0 1
    outer loop
      vertex -1.775 3.07439 2
      vertex -1.76777 1.76777 2
      vertex 0 3.55 2
    endloop
  endfacet
  facet normal 0 0 1
    outer loop
      vertex -1.775 3.07439 2
      vertex -2.5 0 2
      vertex -1.76777 1.76777 2
    endloop
  endfacet
  facet normal 0 0 1
    outer loop
      vertex 0 3.55 2
      vertex 0 2.5 2
      vertex 1.775 3.07439 2
    endloop
  endfacet
  facet normal 0 0 1
    outer loop
      vertex -1.76777 1.76777 2
      vertex 0 2.5 2
      vertex 0 3.55 2
    endloop
  endfacet
  facet normal 0 0 1
    outer loop
      vertex 1.775 3.07439 2
      vertex 1.76777 1.76777 2
      vertex 3.07439 1.775 2
    endloop
  endfacet
  facet normal 0 0 1
    outer loop
      vertex 3.07439 1.775 2
      vertex 2.5 0 2
      vertex 3.55 0 2
    endloop
  endfacet
  facet normal 0 0 1
    outer loop
      vertex 3.55 0 2
      vertex 1.76777 -1.76777 2
      vertex 3.07439 -1.775 2
    endloop
  endfacet
  facet normal 0 0 1
    outer loop
      vertex 3.07439 -1.775 2
      vertex 0 -2.5 2
      vertex 1.775 -3.07439 2
    endloop
  endfacet
  facet normal 0 0 1
    outer loop
      vertex 1.76777 1.76777 2
      vertex 2.5 0 2
      vertex 3.07439 1.775 2
    endloop
  endfacet
  facet normal 0 0 1
    outer loop
      vertex 2.5 0 2
      vertex 1.76777 -1.76777 2
      vertex 3.55 0 2
    endloop
  endfacet
  facet normal 0 0 1
    outer loop
      vertex 1.76777 -1.76777 2
      vertex 0 -2.5 2
      vertex 3.07439 -1.775 2
    endloop
  endfacet
  facet normal 0 0 1
    outer loop
      vertex -1.76777 -1.76777 2
      vertex -2.5 0 2
      vertex -3.07439 -1.775 2
    endloop
  endfacet
  facet normal 1 0 0
    outer loop
      vertex 10.5 0.329299 7.15045
      vertex 10.5 -1.8 6.4
      vertex 10.5 1.8 6.4
    endloop
  endfacet
  facet normal 1 0 0
    outer loop
      vertex 10.5 -0.329299 9.24955
      vertex 10.5 -0.221428 9.27748
      vertex 10.5 1.8 10
    endloop
  endfacet
  facet normal 1 0 0
    outer loop
      vertex 10.5 0.329299 7.15045
      vertex 10.5 0.221428 7.12252
      vertex 10.5 -1.8 6.4
    endloop
  endfacet
  facet normal 1 0 0
    outer loop
      vertex 10.5 -1.8 10
      vertex 10.5 -1.8 6.4
      vertex 10.5 -1.09859 8.14429
    endloop
  endfacet
  facet normal 1 0 0
    outer loop
      vertex 10.5 -1.8 10
      vertex 10.5 -1.09859 8.14429
      vertex 10.5 -1.09859 8.25571
    endloop
  endfacet
  facet normal 1 0 0
    outer loop
      vertex 10.5 -1.8 10
      vertex 10.5 -1.09859 8.25571
      vertex 10.5 -1.08732 8.36657
    endloop
  endfacet
  facet normal 1 0 0
    outer loop
      vertex 10.5 0.533832 7.23822
      vertex 10.5 0.433791 7.18915
      vertex 10.5 1.8 6.4
    endloop
  endfacet
  facet normal 1 0 0
    outer loop
      vertex 10.5 -1.8 10
      vertex 10.5 -1.08732 8.36657
      vertex 10.5 -1.06488 8.47572
    endloop
  endfacet
  facet normal 1 0 0
    outer loop
      vertex 10.5 -1.8 10
      vertex 10.5 -1.06488 8.47572
      vertex 10.5 -1.03153 8.58204
    endloop
  endfacet
  facet normal 1 0 0
    outer loop
      vertex 10.5 0.628395 7.29716
      vertex 10.5 0.533832 7.23822
      vertex 10.5 1.8 6.4
    endloop
  endfacet
  facet normal 1 0 0
    outer loop
      vertex 10.5 -1.8 10
      vertex 10.5 -1.03153 8.58204
      vertex 10.5 -0.987585 8.68443
    endloop
  endfacet
  facet normal 1 0 0
    outer loop
      vertex 10.5 -1.8 10
      vertex 10.5 -0.987585 8.68443
      vertex 10.5 -0.933509 8.78186
    endloop
  endfacet
  facet normal 1 0 0
    outer loop
      vertex 10.5 -1.8 10
      vertex 10.5 -0.933509 8.78186
      vertex 10.5 -0.869853 8.87332
    endloop
  endfacet
  facet normal 1 0 0
    outer loop
      vertex 10.5 -0.111285 9.29436
      vertex 10.5 0 9.3
      vertex 10.5 1.8 10
    endloop
  endfacet
  facet normal 1 0 0
    outer loop
      vertex 10.5 -1.8 10
      vertex 10.5 -0.869853 8.87332
      vertex 10.5 -0.797272 8.95786
    endloop
  endfacet
  facet normal 1 0 0
    outer loop
      vertex 10.5 -0.628395 9.10284
      vertex 10.5 -1.8 10
      vertex 10.5 -0.71651 9.03463
    endloop
  endfacet
  facet normal 1 0 0
    outer loop
      vertex 10.5 1.06488 8.47572
      vertex 10.5 1.08732 8.36657
      vertex 10.5 1.8 6.4
    endloop
  endfacet
  facet normal 1 0 0
    outer loop
      vertex 10.5 -0.533832 9.16178
      vertex 10.5 -1.8 10
      vertex 10.5 -0.628395 9.10284
    endloop
  endfacet
  facet normal 1 0 0
    outer loop
      vertex 10.5 -0.433791 9.21085
      vertex 10.5 -1.8 10
      vertex 10.5 -0.533832 9.16178
    endloop
  endfacet
  facet normal 1 0 0
    outer loop
      vertex 10.5 -0.329299 9.24955
      vertex 10.5 -1.8 10
      vertex 10.5 -0.433791 9.21085
    endloop
  endfacet
  facet normal 1 0 0
    outer loop
      vertex 10.5 -0.221428 9.27748
      vertex 10.5 -0.111285 9.29436
      vertex 10.5 1.8 10
    endloop
  endfacet
  facet normal 1 0 0
    outer loop
      vertex 10.5 1.8 10
      vertex 10.5 -1.8 10
      vertex 10.5 -0.329299 9.24955
    endloop
  endfacet
  facet normal 1 0 0
    outer loop
      vertex 10.5 1.08732 8.36657
      vertex 10.5 1.09859 8.25571
      vertex 10.5 1.8 6.4
    endloop
  endfacet
  facet normal 1 0 0
    outer loop
      vertex 10.5 0.869853 7.52668
      vertex 10.5 0.797272 7.44214
      vertex 10.5 1.8 6.4
    endloop
  endfacet
  facet normal 1 0 0
    outer loop
      vertex 10.5 0.987585 7.71557
      vertex 10.5 0.933509 7.61814
      vertex 10.5 1.8 6.4
    endloop
  endfacet
  facet normal 1 0 0
    outer loop
      vertex 10.5 1.8 10
      vertex 10.5 0 9.3
      vertex 10.5 0.111285 9.29436
    endloop
  endfacet
  facet normal 1 0 0
    outer loop
      vertex 10.5 0.797272 7.44214
      vertex 10.5 0.71651 7.36537
      vertex 10.5 1.8 6.4
    endloop
  endfacet
  facet normal 1 0 0
    outer loop
      vertex 10.5 1.8 10
      vertex 10.5 0.111285 9.29436
      vertex 10.5 0.221428 9.27748
    endloop
  endfacet
  facet normal 1 0 0
    outer loop
      vertex 10.5 1.8 10
      vertex 10.5 0.221428 9.27748
      vertex 10.5 0.329299 9.24955
    endloop
  endfacet
  facet normal 1 0 0
    outer loop
      vertex 10.5 1.03153 7.81796
      vertex 10.5 0.987585 7.71557
      vertex 10.5 1.8 6.4
    endloop
  endfacet
  facet normal 1 0 0
    outer loop
      vertex 10.5 1.8 10
      vertex 10.5 0.329299 9.24955
      vertex 10.5 0.433791 9.21085
    endloop
  endfacet
  facet normal 1 0 0
    outer loop
      vertex 10.5 1.8 10
      vertex 10.5 0.433791 9.21085
      vertex 10.5 0.533832 9.16178
    endloop
  endfacet
  facet normal 1 0 0
    outer loop
      vertex 10.5 1.08732 8.03343
      vertex 10.5 1.06488 7.92428
      vertex 10.5 1.8 6.4
    endloop
  endfacet
  facet normal 1 0 0
    outer loop
      vertex 10.5 1.8 10
      vertex 10.5 0.533832 9.16178
      vertex 10.5 0.628395 9.10284
    endloop
  endfacet
  facet normal 1 0 0
    outer loop
      vertex 10.5 1.06488 7.92428
      vertex 10.5 1.03153 7.81796
      vertex 10.5 1.8 6.4
    endloop
  endfacet
  facet normal 1 0 0
    outer loop
      vertex 10.5 1.8 10
      vertex 10.5 0.628395 9.10284
      vertex 10.5 0.71651 9.03463
    endloop
  endfacet
  facet normal 1 0 0
    outer loop
      vertex 10.5 1.8 10
      vertex 10.5 0.71651 9.03463
      vertex 10.5 0.797272 8.95786
    endloop
  endfacet
  facet normal 1 0 0
    outer loop
      vertex 10.5 1.09859 8.25571
      vertex 10.5 1.09859 8.14429
      vertex 10.5 1.8 6.4
    endloop
  endfacet
  facet normal 1 0 0
    outer loop
      vertex 10.5 1.8 10
      vertex 10.5 0.797272 8.95786
      vertex 10.5 0.869853 8.87332
    endloop
  endfacet
  facet normal 1 0 0
    outer loop
      vertex 10.5 1.09859 8.14429
      vertex 10.5 1.08732 8.03343
      vertex 10.5 1.8 6.4
    endloop
  endfacet
  facet normal 1 0 0
    outer loop
      vertex 10.5 1.8 10
      vertex 10.5 0.869853 8.87332
      vertex 10.5 0.933509 8.78186
    endloop
  endfacet
  facet normal 1 0 0
    outer loop
      vertex 10.5 1.8 10
      vertex 10.5 0.933509 8.78186
      vertex 10.5 0.987585 8.68443
    endloop
  endfacet
  facet normal 1 0 0
    outer loop
      vertex 10.5 1.8 10
      vertex 10.5 1.03153 8.58204
      vertex 10.5 1.8 6.4
    endloop
  endfacet
  facet normal 1 0 0
    outer loop
      vertex 10.5 1.8 10
      vertex 10.5 0.987585 8.68443
      vertex 10.5 1.03153 8.58204
    endloop
  endfacet
  facet normal 1 0 0
    outer loop
      vertex 10.5 1.03153 8.58204
      vertex 10.5 1.06488 8.47572
      vertex 10.5 1.8 6.4
    endloop
  endfacet
  facet normal 1 0 0
    outer loop
      vertex 10.5 0.933509 7.61814
      vertex 10.5 0.869853 7.52668
      vertex 10.5 1.8 6.4
    endloop
  endfacet
  facet normal 1 0 0
    outer loop
      vertex 10.5 0.433791 7.18915
      vertex 10.5 0.329299 7.15045
      vertex 10.5 1.8 6.4
    endloop
  endfacet
  facet normal 1 0 0
    outer loop
      vertex 10.5 0.111285 7.10564
      vertex 10.5 -1.8 6.4
      vertex 10.5 0.221428 7.12252
    endloop
  endfacet
  facet normal 1 0 0
    outer loop
      vertex 10.5 0 7.1
      vertex 10.5 -1.8 6.4
      vertex 10.5 0.111285 7.10564
    endloop
  endfacet
  facet normal 1 0 0
    outer loop
      vertex 10.5 -0.111285 7.10564
      vertex 10.5 -1.8 6.4
      vertex 10.5 0 7.1
    endloop
  endfacet
  facet normal 1 0 0
    outer loop
      vertex 10.5 -0.221428 7.12252
      vertex 10.5 -1.8 6.4
      vertex 10.5 -0.111285 7.10564
    endloop
  endfacet
  facet normal 1 0 0
    outer loop
      vertex 10.5 -0.329299 7.15045
      vertex 10.5 -1.8 6.4
      vertex 10.5 -0.221428 7.12252
    endloop
  endfacet
  facet normal 1 0 0
    outer loop
      vertex 10.5 -0.433791 7.18915
      vertex 10.5 -1.8 6.4
      vertex 10.5 -0.329299 7.15045
    endloop
  endfacet
  facet normal 1 0 0
    outer loop
      vertex 10.5 -0.533832 7.23822
      vertex 10.5 -1.8 6.4
      vertex 10.5 -0.433791 7.18915
    endloop
  endfacet
  facet normal 1 0 0
    outer loop
      vertex 10.5 -0.628395 7.29716
      vertex 10.5 -1.8 6.4
      vertex 10.5 -0.533832 7.23822
    endloop
  endfacet
  facet normal 1 0 0
    outer loop
      vertex 10.5 -0.71651 7.36537
      vertex 10.5 -1.8 6.4
      vertex 10.5 -0.628395 7.29716
    endloop
  endfacet
  facet normal 1 0 0
    outer loop
      vertex 10.5 -0.797272 7.44214
      vertex 10.5 -1.8 6.4
      vertex 10.5 -0.71651 7.36537
    endloop
  endfacet
  facet normal 1 0 0
    outer loop
      vertex 10.5 -0.869853 7.52668
      vertex 10.5 -1.8 6.4
      vertex 10.5 -0.797272 7.44214
    endloop
  endfacet
  facet normal 1 0 0
    outer loop
      vertex 10.5 -0.933509 7.61814
      vertex 10.5 -1.8 6.4
      vertex 10.5 -0.869853 7.52668
    endloop
  endfacet
  facet normal 1 0 0
    outer loop
      vertex 10.5 -0.987585 7.71557
      vertex 10.5 -1.8 6.4
      vertex 10.5 -0.933509 7.61814
    endloop
  endfacet
  facet normal 1 0 0
    outer loop
      vertex 10.5 -1.03153 7.81796
      vertex 10.5 -1.8 6.4
      vertex 10.5 -0.987585 7.71557
    endloop
  endfacet
  facet normal 1 0 0
    outer loop
      vertex 10.5 -1.06488 7.92428
      vertex 10.5 -1.8 6.4
      vertex 10.5 -1.03153 7.81796
    endloop
  endfacet
  facet normal 1 0 0
    outer loop
      vertex 10.5 -1.08732 8.03343
      vertex 10.5 -1.8 6.4
      vertex 10.5 -1.06488 7.92428
    endloop
  endfacet
  facet normal 1 0 0
    outer loop
      vertex 10.5 -1.09859 8.14429
      vertex 10.5 -1.8 6.4
      vertex 10.5 -1.08732 8.03343
    endloop
  endfacet
  facet normal 1 0 0
    outer loop
      vertex 10.5 -0.797272 8.95786
      vertex 10.5 -0.71651 9.03463
      vertex 10.5 -1.8 10
    endloop
  endfacet
  facet normal 1 0 0
    outer loop
      vertex 10.5 0.71651 7.36537
      vertex 10.5 0.628395 7.29716
      vertex 10.5 1.8 6.4
    endloop
  endfacet
  facet normal 0.965926 0.258819 0
    outer loop
      vertex -3.55 0 10
      vertex -3.07439 -1.775 10
      vertex -3.07439 -1.775 2
    endloop
  endfacet
  facet normal 0.965926 0.258819 0
    outer loop
      vertex -3.55 0 2
      vertex -3.55 0 10
      vertex -3.07439 -1.775 2
    endloop
  endfacet
  facet normal 0.707107 0.707107 0
    outer loop
      vertex -1.775 -3.07439 10
      vertex -1.775 -3.07439 2
      vertex -3.07439 -1.775 10
    endloop
  endfacet
  facet normal 0.707107 0.707107 0
    outer loop
      vertex -3.07439 -1.775 10
      vertex -1.775 -3.07439 2
      vertex -3.07439 -1.775 2
    endloop
  endfacet
  facet normal 0.258819 0.965926 0
    outer loop
      vertex 0 -3.55 10
      vertex 0 -3.55 2
      vertex -1.775 -3.07439 10
    endloop
  endfacet
  facet normal 0.258819 0.965926 0
    outer loop
      vertex -1.775 -3.07439 10
      vertex 0 -3.55 2
      vertex -1.775 -3.07439 2
    endloop
  endfacet
  facet normal -0.258819 0.965926 0
    outer loop
      vertex 1.775 -3.07439 10
      vertex 1.775 -3.07439 2
      vertex 0 -3.55 10
    endloop
  endfacet
  facet normal -0.258819 0.965926 0
    outer loop
      vertex 0 -3.55 10
      vertex 1.775 -3.07439 2
      vertex 0 -3.55 2
    endloop
  endfacet
  facet normal -0.707107 0.707107 0
    outer loop
      vertex 3.07439 -1.775 10
      vertex 3.07439 -1.775 2
      vertex 1.775 -3.07439 10
    endloop
  endfacet
  facet normal -0.707107 0.707107 0
    outer loop
      vertex 1.775 -3.07439 10
      vertex 3.07439 -1.775 2
      vertex 1.775 -3.07439 2
    endloop
  endfacet
  facet normal -0.965926 0.258819 0
    outer loop
      vertex 3.55 0 10
      vertex 3.55 0 2
      vertex 3.07439 -1.775 10
    endloop
  endfacet
  facet normal -0.965926 0.258819 0
    outer loop
      vertex 3.07439 -1.775 10
      vertex 3.55 0 2
      vertex 3.07439 -1.775 2
    endloop
  endfacet
  facet normal -0.965926 -0.258819 0
    outer loop
      vertex 3.55 0 10
      vertex 3.07439 1.775 10
      vertex 3.55 0 2
    endloop
  endfacet
  facet normal -0.965926 -0.258819 0
    outer loop
      vertex 3.55 0 2
      vertex 3.07439 1.775 10
      vertex 3.07439 1.775 2
    endloop
  endfacet
  facet normal -0.707107 -0.707107 0
    outer loop
      vertex 3.07439 1.775 2
      vertex 3.07439 1.775 10
      vertex 1.775 3.07439 10
    endloop
  endfacet
  facet normal -0.707107 -0.707107 0
    outer loop
      vertex 1.775 3.07439 2
      vertex 3.07439 1.775 2
      vertex 1.775 3.07439 10
    endloop
  endfacet
  facet normal -0.258819 -0.965926 0
    outer loop
      vertex 1.775 3.07439 2
      vertex 1.775 3.07439 10
      vertex 0 3.55 10
    endloop
  endfacet
  facet normal -0.258819 -0.965926 0
    outer loop
      vertex 0 3.55 2
      vertex 1.775 3.07439 2
      vertex 0 3.55 10
    endloop
  endfacet
  facet normal 0.258819 -0.965926 0
    outer loop
      vertex 0 3.55 2
      vertex 0 3.55 10
      vertex -1.775 3.07439 10
    endloop
  endfacet
  facet normal 0.258819 -0.965926 0
    outer loop
      vertex -1.775 3.07439 2
      vertex 0 3.55 2
      vertex -1.775 3.07439 10
    endloop
  endfacet
  facet normal 0.707107 -0.707107 0
    outer loop
      vertex -1.775 3.07439 2
      vertex -1.775 3.07439 10
      vertex -3.07439 1.775 10
    endloop
  endfacet
  facet normal 0.707107 -0.707107 0
    outer loop
      vertex -3.07439 1.775 2
      vertex -1.775 3.07439 2
      vertex -3.07439 1.775 10
    endloop
  endfacet
  facet normal 0.965926 -0.258819 0
    outer loop
      vertex -3.07439 1.775 2
      vertex -3.07439 1.775 10
      vertex -3.55 0 10
    endloop
  endfacet
  facet normal 0.965926 -0.258819 0
    outer loop
      vertex -3.55 0 2
      vertex -3.07439 1.775 2
      vertex -3.55 0 10
    endloop
  endfacet
  facet normal 0 1 0
    outer loop
      vertex 10.5 -1.09859 8.25571
      vertex 10.5 -1.09859 8.14429
      vertex 4.31649 -1.09859 8.25571
    endloop
  endfacet
  facet normal 0 1 0
    outer loop
      vertex 4.31649 -1.09859 8.25571
      vertex 10.5 -1.09859 8.14429
      vertex 4.31649 -1.09859 8.14429
    endloop
  endfacet
  facet normal -6.19474e-18 0.994869 0.101168
    outer loop
      vertex 10.5 -1.08732 8.03343
      vertex 4.31888 -1.08732 8.03343
      vertex 10.5 -1.09859 8.14429
    endloop
  endfacet
  facet normal -6.19474e-18 0.994869 0.101168
    outer loop
      vertex 10.5 -1.09859 8.14429
      vertex 4.31888 -1.08732 8.03343
      vertex 4.31649 -1.09859 8.14429
    endloop
  endfacet
  facet normal -1.23258e-17 0.97953 0.201296
    outer loop
      vertex 10.5 -1.06488 7.92428
      vertex 4.32365 -1.06488 7.92428
      vertex 10.5 -1.08732 8.03343
    endloop
  endfacet
  facet normal -1.23258e-17 0.97953 0.201296
    outer loop
      vertex 10.5 -1.08732 8.03343
      vertex 4.32365 -1.06488 7.92428
      vertex 4.31888 -1.08732 8.03343
    endloop
  endfacet
  facet normal -1.8331e-17 0.954138 0.299367
    outer loop
      vertex 10.5 -1.03153 7.81796
      vertex 4.33074 -1.03153 7.81796
      vertex 10.5 -1.06488 7.92428
    endloop
  endfacet
  facet normal -1.8331e-17 0.954138 0.299367
    outer loop
      vertex 10.5 -1.06488 7.92428
      vertex 4.33074 -1.03153 7.81796
      vertex 4.32365 -1.06488 7.92428
    endloop
  endfacet
  facet normal -2.41471e-17 0.918959 0.394353
    outer loop
      vertex 10.5 -0.987585 7.71557
      vertex 4.34008 -0.987585 7.71557
      vertex 10.5 -1.03153 7.81796
    endloop
  endfacet
  facet normal -2.41471e-17 0.918959 0.394353
    outer loop
      vertex 10.5 -1.03153 7.81796
      vertex 4.34008 -0.987585 7.71557
      vertex 4.33074 -1.03153 7.81796
    endloop
  endfacet
  facet normal -2.97162e-17 0.874346 0.485303
    outer loop
      vertex 10.5 -0.933509 7.61814
      vertex 4.35158 -0.933509 7.61814
      vertex 10.5 -0.987585 7.71557
    endloop
  endfacet
  facet normal -2.97162e-17 0.874346 0.485303
    outer loop
      vertex 10.5 -0.987585 7.71557
      vertex 4.35158 -0.933509 7.61814
      vertex 4.34008 -0.987585 7.71557
    endloop
  endfacet
  facet normal -3.49801e-17 0.820763 0.571269
    outer loop
      vertex 10.5 -0.869853 7.52668
      vertex 4.36511 -0.869853 7.52668
      vertex 10.5 -0.933509 7.61814
    endloop
  endfacet
  facet normal -3.49801e-17 0.820763 0.571269
    outer loop
      vertex 10.5 -0.933509 7.61814
      vertex 4.36511 -0.869853 7.52668
      vertex 4.35158 -0.933509 7.61814
    endloop
  endfacet
  facet normal -3.9885e-17 0.758759 0.651371
    outer loop
      vertex 10.5 -0.797272 7.44214
      vertex 4.38053 -0.797272 7.44214
      vertex 10.5 -0.869853 7.52668
    endloop
  endfacet
  facet normal -3.9885e-17 0.758759 0.651371
    outer loop
      vertex 10.5 -0.869853 7.52668
      vertex 4.38053 -0.797272 7.44214
      vertex 4.36511 -0.869853 7.52668
    endloop
  endfacet
  facet normal -4.43808e-17 0.688967 0.724793
    outer loop
      vertex 10.5 -0.797272 7.44214
      vertex 10.5 -0.71651 7.36537
      vertex 4.3977 -0.71651 7.36537
    endloop
  endfacet
  facet normal -4.43808e-17 0.688967 0.724793
    outer loop
      vertex 4.38053 -0.797272 7.44214
      vertex 10.5 -0.797272 7.44214
      vertex 4.3977 -0.71651 7.36537
    endloop
  endfacet
  facet normal -4.84211e-17 0.612105 0.790776
    outer loop
      vertex 10.5 -0.71651 7.36537
      vertex 10.5 -0.628395 7.29716
      vertex 4.41643 -0.628395 7.29716
    endloop
  endfacet
  facet normal -4.84211e-17 0.612105 0.790776
    outer loop
      vertex 4.3977 -0.71651 7.36537
      vertex 10.5 -0.71651 7.36537
      vertex 4.41643 -0.628395 7.29716
    endloop
  endfacet
  facet normal -5.19646e-17 0.52896 0.848647
    outer loop
      vertex 10.5 -0.628395 7.29716
      vertex 10.5 -0.533832 7.23822
      vertex 4.43653 -0.533832 7.23822
    endloop
  endfacet
  facet normal -5.19646e-17 0.52896 0.848647
    outer loop
      vertex 4.41643 -0.628395 7.29716
      vertex 10.5 -0.628395 7.29716
      vertex 4.43653 -0.533832 7.23822
    endloop
  endfacet
  facet normal -5.49746e-17 0.440398 0.897803
    outer loop
      vertex 10.5 -0.533832 7.23822
      vertex 10.5 -0.433791 7.18915
      vertex 4.45779 -0.433791 7.18915
    endloop
  endfacet
  facet normal -5.49746e-17 0.440398 0.897803
    outer loop
      vertex 4.43653 -0.533832 7.23822
      vertex 10.5 -0.533832 7.23822
      vertex 4.45779 -0.433791 7.18915
    endloop
  endfacet
  facet normal -5.74209e-17 0.347301 0.937754
    outer loop
      vertex 10.5 -0.433791 7.18915
      vertex 10.5 -0.329299 7.15045
      vertex 4.48001 -0.329299 7.15045
    endloop
  endfacet
  facet normal -5.74209e-17 0.347301 0.937754
    outer loop
      vertex 4.45779 -0.433791 7.18915
      vertex 10.5 -0.433791 7.18915
      vertex 4.48001 -0.329299 7.15045
    endloop
  endfacet
  facet normal -5.92776e-17 0.250655 0.968077
    outer loop
      vertex 10.5 -0.329299 7.15045
      vertex 10.5 -0.221428 7.12252
      vertex 4.50293 -0.221428 7.12252
    endloop
  endfacet
  facet normal -5.92776e-17 0.250655 0.968077
    outer loop
      vertex 4.48001 -0.329299 7.15045
      vertex 10.5 -0.329299 7.15045
      vertex 4.50293 -0.221428 7.12252
    endloop
  endfacet
  facet normal -6.05263e-17 0.151425 0.988469
    outer loop
      vertex 10.5 -0.221428 7.12252
      vertex 10.5 -0.111285 7.10564
      vertex 4.52635 -0.111285 7.10564
    endloop
  endfacet
  facet normal -6.05263e-17 0.151425 0.988469
    outer loop
      vertex 4.50293 -0.221428 7.12252
      vertex 10.5 -0.221428 7.12252
      vertex 4.52635 -0.111285 7.10564
    endloop
  endfacet
  facet normal -6.11537e-17 0.0506515 0.998716
    outer loop
      vertex 10.5 -0.111285 7.10564
      vertex 10.5 0 7.1
      vertex 4.55 0 7.1
    endloop
  endfacet
  facet normal -6.11537e-17 0.0506515 0.998716
    outer loop
      vertex 4.52635 -0.111285 7.10564
      vertex 10.5 -0.111285 7.10564
      vertex 4.55 0 7.1
    endloop
  endfacet
  facet normal -6.11537e-17 -0.0506515 0.998716
    outer loop
      vertex 4.55 0 7.1
      vertex 10.5 0 7.1
      vertex 10.5 0.111285 7.10564
    endloop
  endfacet
  facet normal -6.11537e-17 -0.0506515 0.998716
    outer loop
      vertex 4.52635 0.111285 7.10564
      vertex 4.55 0 7.1
      vertex 10.5 0.111285 7.10564
    endloop
  endfacet
  facet normal -6.05263e-17 -0.151425 0.988469
    outer loop
      vertex 4.52635 0.111285 7.10564
      vertex 10.5 0.111285 7.10564
      vertex 10.5 0.221428 7.12252
    endloop
  endfacet
  facet normal -6.05263e-17 -0.151425 0.988469
    outer loop
      vertex 4.50293 0.221428 7.12252
      vertex 4.52635 0.111285 7.10564
      vertex 10.5 0.221428 7.12252
    endloop
  endfacet
  facet normal -5.92776e-17 -0.250655 0.968077
    outer loop
      vertex 4.50293 0.221428 7.12252
      vertex 10.5 0.221428 7.12252
      vertex 10.5 0.329299 7.15045
    endloop
  endfacet
  facet normal -5.92776e-17 -0.250655 0.968077
    outer loop
      vertex 4.48001 0.329299 7.15045
      vertex 4.50293 0.221428 7.12252
      vertex 10.5 0.329299 7.15045
    endloop
  endfacet
  facet normal -5.74209e-17 -0.347301 0.937754
    outer loop
      vertex 4.48001 0.329299 7.15045
      vertex 10.5 0.329299 7.15045
      vertex 10.5 0.433791 7.18915
    endloop
  endfacet
  facet normal -5.74209e-17 -0.347301 0.937754
    outer loop
      vertex 4.45779 0.433791 7.18915
      vertex 4.48001 0.329299 7.15045
      vertex 10.5 0.433791 7.18915
    endloop
  endfacet
  facet normal -5.49746e-17 -0.440398 0.897803
    outer loop
      vertex 4.45779 0.433791 7.18915
      vertex 10.5 0.433791 7.18915
      vertex 10.5 0.533832 7.23822
    endloop
  endfacet
  facet normal -5.49746e-17 -0.440398 0.897803
    outer loop
      vertex 4.43653 0.533832 7.23822
      vertex 4.45779 0.433791 7.18915
      vertex 10.5 0.533832 7.23822
    endloop
  endfacet
  facet normal -5.19646e-17 -0.52896 0.848647
    outer loop
      vertex 4.43653 0.533832 7.23822
      vertex 10.5 0.533832 7.23822
      vertex 10.5 0.628395 7.29716
    endloop
  endfacet
  facet normal -5.19646e-17 -0.52896 0.848647
    outer loop
      vertex 4.41643 0.628395 7.29716
      vertex 4.43653 0.533832 7.23822
      vertex 10.5 0.628395 7.29716
    endloop
  endfacet
  facet normal -4.84211e-17 -0.612105 0.790776
    outer loop
      vertex 4.41643 0.628395 7.29716
      vertex 10.5 0.628395 7.29716
      vertex 10.5 0.71651 7.36537
    endloop
  endfacet
  facet normal -4.84211e-17 -0.612105 0.790776
    outer loop
      vertex 4.3977 0.71651 7.36537
      vertex 4.41643 0.628395 7.29716
      vertex 10.5 0.71651 7.36537
    endloop
  endfacet
  facet normal -4.43808e-17 -0.688967 0.724793
    outer loop
      vertex 4.3977 0.71651 7.36537
      vertex 10.5 0.71651 7.36537
      vertex 10.5 0.797272 7.44214
    endloop
  endfacet
  facet normal -4.43808e-17 -0.688967 0.724793
    outer loop
      vertex 4.38053 0.797272 7.44214
      vertex 4.3977 0.71651 7.36537
      vertex 10.5 0.797272 7.44214
    endloop
  endfacet
  facet normal -3.9885e-17 -0.758759 0.651371
    outer loop
      vertex 4.38053 0.797272 7.44214
      vertex 10.5 0.797272 7.44214
      vertex 10.5 0.869853 7.52668
    endloop
  endfacet
  facet normal -3.9885e-17 -0.758759 0.651371
    outer loop
      vertex 4.36511 0.869853 7.52668
      vertex 4.38053 0.797272 7.44214
      vertex 10.5 0.869853 7.52668
    endloop
  endfacet
  facet normal -3.49801e-17 -0.820763 0.571269
    outer loop
      vertex 4.36511 0.869853 7.52668
      vertex 10.5 0.869853 7.52668
      vertex 10.5 0.933509 7.61814
    endloop
  endfacet
  facet normal -3.49801e-17 -0.820763 0.571269
    outer loop
      vertex 4.35158 0.933509 7.61814
      vertex 4.36511 0.869853 7.52668
      vertex 10.5 0.933509 7.61814
    endloop
  endfacet
  facet normal -2.97162e-17 -0.874346 0.485303
    outer loop
      vertex 4.35158 0.933509 7.61814
      vertex 10.5 0.933509 7.61814
      vertex 10.5 0.987585 7.71557
    endloop
  endfacet
  facet normal -2.97162e-17 -0.874346 0.485303
    outer loop
      vertex 4.34008 0.987585 7.71557
      vertex 4.35158 0.933509 7.61814
      vertex 10.5 0.987585 7.71557
    endloop
  endfacet
  facet normal -2.41471e-17 -0.918959 0.394353
    outer loop
      vertex 4.34008 0.987585 7.71557
      vertex 10.5 0.987585 7.71557
      vertex 10.5 1.03153 7.81796
    endloop
  endfacet
  facet normal -2.41471e-17 -0.918959 0.394353
    outer loop
      vertex 4.33074 1.03153 7.81796
      vertex 4.34008 0.987585 7.71557
      vertex 10.5 1.03153 7.81796
    endloop
  endfacet
  facet normal -1.8331e-17 -0.954138 0.299367
    outer loop
      vertex 4.33074 1.03153 7.81796
      vertex 10.5 1.03153 7.81796
      vertex 10.5 1.06488 7.92428
    endloop
  endfacet
  facet normal -1.8331e-17 -0.954138 0.299367
    outer loop
      vertex 4.32365 1.06488 7.92428
      vertex 4.33074 1.03153 7.81796
      vertex 10.5 1.06488 7.92428
    endloop
  endfacet
  facet normal -1.23258e-17 -0.97953 0.201296
    outer loop
      vertex 4.32365 1.06488 7.92428
      vertex 10.5 1.06488 7.92428
      vertex 10.5 1.08732 8.03343
    endloop
  endfacet
  facet normal -1.23258e-17 -0.97953 0.201296
    outer loop
      vertex 4.31888 1.08732 8.03343
      vertex 4.32365 1.06488 7.92428
      vertex 10.5 1.08732 8.03343
    endloop
  endfacet
  facet normal -6.19474e-18 -0.994869 0.101168
    outer loop
      vertex 4.31888 1.08732 8.03343
      vertex 10.5 1.08732 8.03343
      vertex 10.5 1.09859 8.14429
    endloop
  endfacet
  facet normal -6.19474e-18 -0.994869 0.101168
    outer loop
      vertex 4.31649 1.09859 8.14429
      vertex 4.31888 1.08732 8.03343
      vertex 10.5 1.09859 8.14429
    endloop
  endfacet
  facet normal 0 -1 0
    outer loop
      vertex 10.5 1.09859 8.14429
      vertex 10.5 1.09859 8.25571
      vertex 4.31649 1.09859 8.25571
    endloop
  endfacet
  facet normal 0 -1 0
    outer loop
      vertex 4.31649 1.09859 8.14429
      vertex 10.5 1.09859 8.14429
      vertex 4.31649 1.09859 8.25571
    endloop
  endfacet
  facet normal 6.19474e-18 -0.994869 -0.101168
    outer loop
      vertex 10.5 1.09859 8.25571
      vertex 10.5 1.08732 8.36657
      vertex 4.31888 1.08732 8.36657
    endloop
  endfacet
  facet normal 6.19474e-18 -0.994869 -0.101168
    outer loop
      vertex 4.31649 1.09859 8.25571
      vertex 10.5 1.09859 8.25571
      vertex 4.31888 1.08732 8.36657
    endloop
  endfacet
  facet normal 1.23258e-17 -0.97953 -0.201296
    outer loop
      vertex 10.5 1.08732 8.36657
      vertex 10.5 1.06488 8.47572
      vertex 4.32365 1.06488 8.47572
    endloop
  endfacet
  facet normal 1.23258e-17 -0.97953 -0.201296
    outer loop
      vertex 4.31888 1.08732 8.36657
      vertex 10.5 1.08732 8.36657
      vertex 4.32365 1.06488 8.47572
    endloop
  endfacet
  facet normal 1.8331e-17 -0.954138 -0.299367
    outer loop
      vertex 10.5 1.06488 8.47572
      vertex 10.5 1.03153 8.58204
      vertex 4.33074 1.03153 8.58204
    endloop
  endfacet
  facet normal 1.8331e-17 -0.954138 -0.299367
    outer loop
      vertex 4.32365 1.06488 8.47572
      vertex 10.5 1.06488 8.47572
      vertex 4.33074 1.03153 8.58204
    endloop
  endfacet
  facet normal 2.41471e-17 -0.918959 -0.394353
    outer loop
      vertex 10.5 1.03153 8.58204
      vertex 10.5 0.987585 8.68443
      vertex 4.34008 0.987585 8.68443
    endloop
  endfacet
  facet normal 2.41471e-17 -0.918959 -0.394353
    outer loop
      vertex 4.33074 1.03153 8.58204
      vertex 10.5 1.03153 8.58204
      vertex 4.34008 0.987585 8.68443
    endloop
  endfacet
  facet normal 2.97162e-17 -0.874346 -0.485303
    outer loop
      vertex 10.5 0.987585 8.68443
      vertex 10.5 0.933509 8.78186
      vertex 4.35158 0.933509 8.78186
    endloop
  endfacet
  facet normal 2.97162e-17 -0.874346 -0.485303
    outer loop
      vertex 4.34008 0.987585 8.68443
      vertex 10.5 0.987585 8.68443
      vertex 4.35158 0.933509 8.78186
    endloop
  endfacet
  facet normal 3.49801e-17 -0.820763 -0.571269
    outer loop
      vertex 10.5 0.933509 8.78186
      vertex 10.5 0.869853 8.87332
      vertex 4.36511 0.869853 8.87332
    endloop
  endfacet
  facet normal 3.49801e-17 -0.820763 -0.571269
    outer loop
      vertex 4.35158 0.933509 8.78186
      vertex 10.5 0.933509 8.78186
      vertex 4.36511 0.869853 8.87332
    endloop
  endfacet
  facet normal 3.9885e-17 -0.758759 -0.651371
    outer loop
      vertex 10.5 0.869853 8.87332
      vertex 10.5 0.797272 8.95786
      vertex 4.38053 0.797272 8.95786
    endloop
  endfacet
  facet normal 3.9885e-17 -0.758759 -0.651371
    outer loop
      vertex 4.36511 0.869853 8.87332
      vertex 10.5 0.869853 8.87332
      vertex 4.38053 0.797272 8.95786
    endloop
  endfacet
  facet normal 4.43808e-17 -0.688967 -0.724793
    outer loop
      vertex 10.5 0.71651 9.03463
      vertex 4.3977 0.71651 9.03463
      vertex 10.5 0.797272 8.95786
    endloop
  endfacet
  facet normal 4.43808e-17 -0.688967 -0.724793
    outer loop
      vertex 10.5 0.797272 8.95786
      vertex 4.3977 0.71651 9.03463
      vertex 4.38053 0.797272 8.95786
    endloop
  endfacet
  facet normal 4.84211e-17 -0.612105 -0.790776
    outer loop
      vertex 10.5 0.628395 9.10284
      vertex 4.41643 0.628395 9.10284
      vertex 10.5 0.71651 9.03463
    endloop
  endfacet
  facet normal 4.84211e-17 -0.612105 -0.790776
    outer loop
      vertex 10.5 0.71651 9.03463
      vertex 4.41643 0.628395 9.10284
      vertex 4.3977 0.71651 9.03463
    endloop
  endfacet
  facet normal 5.19646e-17 -0.52896 -0.848647
    outer loop
      vertex 10.5 0.533832 9.16178
      vertex 4.43653 0.533832 9.16178
      vertex 10.5 0.628395 9.10284
    endloop
  endfacet
  facet normal 5.19646e-17 -0.52896 -0.848647
    outer loop
      vertex 10.5 0.628395 9.10284
      vertex 4.43653 0.533832 9.16178
      vertex 4.41643 0.628395 9.10284
    endloop
  endfacet
  facet normal 5.49746e-17 -0.440398 -0.897803
    outer loop
      vertex 10.5 0.433791 9.21085
      vertex 4.45779 0.433791 9.21085
      vertex 10.5 0.533832 9.16178
    endloop
  endfacet
  facet normal 5.49746e-17 -0.440398 -0.897803
    outer loop
      vertex 10.5 0.533832 9.16178
      vertex 4.45779 0.433791 9.21085
      vertex 4.43653 0.533832 9.16178
    endloop
  endfacet
  facet normal 5.74209e-17 -0.347301 -0.937754
    outer loop
      vertex 10.5 0.329299 9.24955
      vertex 4.48001 0.329299 9.24955
      vertex 10.5 0.433791 9.21085
    endloop
  endfacet
  facet normal 5.74209e-17 -0.347301 -0.937754
    outer loop
      vertex 10.5 0.433791 9.21085
      vertex 4.48001 0.329299 9.24955
      vertex 4.45779 0.433791 9.21085
    endloop
  endfacet
  facet normal 5.92776e-17 -0.250655 -0.968077
    outer loop
      vertex 10.5 0.221428 9.27748
      vertex 4.50293 0.221428 9.27748
      vertex 10.5 0.329299 9.24955
    endloop
  endfacet
  facet normal 5.92776e-17 -0.250655 -0.968077
    outer loop
      vertex 10.5 0.329299 9.24955
      vertex 4.50293 0.221428 9.27748
      vertex 4.48001 0.329299 9.24955
    endloop
  endfacet
  facet normal 6.05263e-17 -0.151425 -0.988469
    outer loop
      vertex 10.5 0.111285 9.29436
      vertex 4.52635 0.111285 9.29436
      vertex 10.5 0.221428 9.27748
    endloop
  endfacet
  facet normal 6.05263e-17 -0.151425 -0.988469
    outer loop
      vertex 10.5 0.221428 9.27748
      vertex 4.52635 0.111285 9.29436
      vertex 4.50293 0.221428 9.27748
    endloop
  endfacet
  facet normal 6.11537e-17 -0.0506515 -0.998716
    outer loop
      vertex 10.5 0 9.3
      vertex 4.55 0 9.3
      vertex 10.5 0.111285 9.29436
    endloop
  endfacet
  facet normal 6.11537e-17 -0.0506515 -0.998716
    outer loop
      vertex 10.5 0.111285 9.29436
      vertex 4.55 0 9.3
      vertex 4.52635 0.111285 9.29436
    endloop
  endfacet
  facet normal 6.11537e-17 0.0506515 -0.998716
    outer loop
      vertex 10.5 0 9.3
      vertex 10.5 -0.111285 9.29436
      vertex 4.55 0 9.3
    endloop
  endfacet
  facet normal 6.11537e-17 0.0506515 -0.998716
    outer loop
      vertex 4.55 0 9.3
      vertex 10.5 -0.111285 9.29436
      vertex 4.52635 -0.111285 9.29436
    endloop
  endfacet
  facet normal 6.05263e-17 0.151425 -0.988469
    outer loop
      vertex 10.5 -0.111285 9.29436
      vertex 10.5 -0.221428 9.27748
      vertex 4.52635 -0.111285 9.29436
    endloop
  endfacet
  facet normal 6.05263e-17 0.151425 -0.988469
    outer loop
      vertex 4.52635 -0.111285 9.29436
      vertex 10.5 -0.221428 9.27748
      vertex 4.50293 -0.221428 9.27748
    endloop
  endfacet
  facet normal 5.92776e-17 0.250655 -0.968077
    outer loop
      vertex 10.5 -0.221428 9.27748
      vertex 10.5 -0.329299 9.24955
      vertex 4.50293 -0.221428 9.27748
    endloop
  endfacet
  facet normal 5.92776e-17 0.250655 -0.968077
    outer loop
      vertex 4.50293 -0.221428 9.27748
      vertex 10.5 -0.329299 9.24955
      vertex 4.48001 -0.329299 9.24955
    endloop
  endfacet
  facet normal 5.74209e-17 0.347301 -0.937754
    outer loop
      vertex 10.5 -0.329299 9.24955
      vertex 10.5 -0.433791 9.21085
      vertex 4.48001 -0.329299 9.24955
    endloop
  endfacet
  facet normal 5.74209e-17 0.347301 -0.937754
    outer loop
      vertex 4.48001 -0.329299 9.24955
      vertex 10.5 -0.433791 9.21085
      vertex 4.45779 -0.433791 9.21085
    endloop
  endfacet
  facet normal 5.49746e-17 0.440398 -0.897803
    outer loop
      vertex 10.5 -0.433791 9.21085
      vertex 10.5 -0.533832 9.16178
      vertex 4.45779 -0.433791 9.21085
    endloop
  endfacet
  facet normal 5.49746e-17 0.440398 -0.897803
    outer loop
      vertex 4.45779 -0.433791 9.21085
      vertex 10.5 -0.533832 9.16178
      vertex 4.43653 -0.533832 9.16178
    endloop
  endfacet
  facet normal 5.19646e-17 0.52896 -0.848647
    outer loop
      vertex 10.5 -0.533832 9.16178
      vertex 10.5 -0.628395 9.10284
      vertex 4.43653 -0.533832 9.16178
    endloop
  endfacet
  facet normal 5.19646e-17 0.52896 -0.848647
    outer loop
      vertex 4.43653 -0.533832 9.16178
      vertex 10.5 -0.628395 9.10284
      vertex 4.41643 -0.628395 9.10284
    endloop
  endfacet
  facet normal 4.84211e-17 0.612105 -0.790776
    outer loop
      vertex 10.5 -0.628395 9.10284
      vertex 10.5 -0.71651 9.03463
      vertex 4.41643 -0.628395 9.10284
    endloop
  endfacet
  facet normal 4.84211e-17 0.612105 -0.790776
    outer loop
      vertex 4.41643 -0.628395 9.10284
      vertex 10.5 -0.71651 9.03463
      vertex 4.3977 -0.71651 9.03463
    endloop
  endfacet
  facet normal 4.43808e-17 0.688967 -0.724793
    outer loop
      vertex 10.5 -0.71651 9.03463
      vertex 10.5 -0.797272 8.95786
      vertex 4.3977 -0.71651 9.03463
    endloop
  endfacet
  facet normal 4.43808e-17 0.688967 -0.724793
    outer loop
      vertex 4.3977 -0.71651 9.03463
      vertex 10.5 -0.797272 8.95786
      vertex 4.38053 -0.797272 8.95786
    endloop
  endfacet
  facet normal 3.9885e-17 0.758759 -0.651371
    outer loop
      vertex 10.5 -0.797272 8.95786
      vertex 10.5 -0.869853 8.87332
      vertex 4.38053 -0.797272 8.95786
    endloop
  endfacet
  facet normal 3.9885e-17 0.758759 -0.651371
    outer loop
      vertex 4.38053 -0.797272 8.95786
      vertex 10.5 -0.869853 8.87332
      vertex 4.36511 -0.869853 8.87332
    endloop
  endfacet
  facet normal 3.49801e-17 0.820763 -0.571269
    outer loop
      vertex 10.5 -0.869853 8.87332
      vertex 10.5 -0.933509 8.78186
      vertex 4.36511 -0.869853 8.87332
    endloop
  endfacet
  facet normal 3.49801e-17 0.820763 -0.571269
    outer loop
      vertex 4.36511 -0.869853 8.87332
      vertex 10.5 -0.933509 8.78186
      vertex 4.35158 -0.933509 8.78186
    endloop
  endfacet
  facet normal 2.97162e-17 0.874346 -0.485303
    outer loop
      vertex 10.5 -0.933509 8.78186
      vertex 10.5 -0.987585 8.68443
      vertex 4.35158 -0.933509 8.78186
    endloop
  endfacet
  facet normal 2.97162e-17 0.874346 -0.485303
    outer loop
      vertex 4.35158 -0.933509 8.78186
      vertex 10.5 -0.987585 8.68443
      vertex 4.34008 -0.987585 8.68443
    endloop
  endfacet
  facet normal 2.41471e-17 0.918959 -0.394353
    outer loop
      vertex 10.5 -0.987585 8.68443
      vertex 10.5 -1.03153 8.58204
      vertex 4.34008 -0.987585 8.68443
    endloop
  endfacet
  facet normal 2.41471e-17 0.918959 -0.394353
    outer loop
      vertex 4.34008 -0.987585 8.68443
      vertex 10.5 -1.03153 8.58204
      vertex 4.33074 -1.03153 8.58204
    endloop
  endfacet
  facet normal 1.8331e-17 0.954138 -0.299367
    outer loop
      vertex 10.5 -1.03153 8.58204
      vertex 10.5 -1.06488 8.47572
      vertex 4.33074 -1.03153 8.58204
    endloop
  endfacet
  facet normal 1.8331e-17 0.954138 -0.299367
    outer loop
      vertex 4.33074 -1.03153 8.58204
      vertex 10.5 -1.06488 8.47572
      vertex 4.32365 -1.06488 8.47572
    endloop
  endfacet
  facet normal 1.23258e-17 0.97953 -0.201296
    outer loop
      vertex 10.5 -1.06488 8.47572
      vertex 10.5 -1.08732 8.36657
      vertex 4.32365 -1.06488 8.47572
    endloop
  endfacet
  facet normal 1.23258e-17 0.97953 -0.201296
    outer loop
      vertex 4.32365 -1.06488 8.47572
      vertex 10.5 -1.08732 8.36657
      vertex 4.31888 -1.08732 8.36657
    endloop
  endfacet
  facet normal 6.19474e-18 0.994869 -0.101168
    outer loop
      vertex 10.5 -1.08732 8.36657
      vertex 10.5 -1.09859 8.25571
      vertex 4.31888 -1.08732 8.36657
    endloop
  endfacet
  facet normal 6.19474e-18 0.994869 -0.101168
    outer loop
      vertex 4.31888 -1.08732 8.36657
      vertex 10.5 -1.09859 8.25571
      vertex 4.31649 -1.09859 8.25571
    endloop
  endfacet
  facet normal 0.978148 -0.207912 0
    outer loop
      vertex 4.31649 -1.09859 8.25571
      vertex 4.31649 -1.09859 8.14429
      vertex 4.31888 -1.08732 8.03343
    endloop
  endfacet
  facet normal 0.978148 -0.207912 0
    outer loop
      vertex 4.33074 -1.03153 7.81796
      vertex 4.31649 -1.09859 8.25571
      vertex 4.32365 -1.06488 7.92428
    endloop
  endfacet
  facet normal 0.978148 -0.207912 0
    outer loop
      vertex 4.32365 -1.06488 7.92428
      vertex 4.31649 -1.09859 8.25571
      vertex 4.31888 -1.08732 8.03343
    endloop
  endfacet
  facet normal 0.978148 -0.207912 0
    outer loop
      vertex 4.34008 -0.987585 7.71557
      vertex 4.31649 -1.09859 8.25571
      vertex 4.33074 -1.03153 7.81796
    endloop
  endfacet
  facet normal 0.978148 -0.207912 0
    outer loop
      vertex 4.35158 -0.933509 7.61814
      vertex 4.31649 -1.09859 8.25571
      vertex 4.34008 -0.987585 7.71557
    endloop
  endfacet
  facet normal 0.978148 -0.207912 0
    outer loop
      vertex 4.36511 -0.869853 7.52668
      vertex 4.31649 -1.09859 8.25571
      vertex 4.35158 -0.933509 7.61814
    endloop
  endfacet
  facet normal 0.978148 -0.207912 0
    outer loop
      vertex 4.38053 -0.797272 7.44214
      vertex 4.31649 -1.09859 8.25571
      vertex 4.36511 -0.869853 7.52668
    endloop
  endfacet
  facet normal 0.978148 -0.207912 0
    outer loop
      vertex 4.3977 -0.71651 7.36537
      vertex 4.31649 -1.09859 8.25571
      vertex 4.38053 -0.797272 7.44214
    endloop
  endfacet
  facet normal 0.978148 -0.207912 0
    outer loop
      vertex 4.41643 -0.628395 7.29716
      vertex 4.31649 -1.09859 8.25571
      vertex 4.3977 -0.71651 7.36537
    endloop
  endfacet
  facet normal 0.978148 -0.207912 0
    outer loop
      vertex 4.43653 -0.533832 7.23822
      vertex 4.31649 -1.09859 8.25571
      vertex 4.41643 -0.628395 7.29716
    endloop
  endfacet
  facet normal 0.978148 -0.207912 0
    outer loop
      vertex 4.45779 -0.433791 7.18915
      vertex 4.31649 -1.09859 8.25571
      vertex 4.43653 -0.533832 7.23822
    endloop
  endfacet
  facet normal 0.978148 -0.207912 0
    outer loop
      vertex 4.48001 -0.329299 7.15045
      vertex 4.31649 -1.09859 8.25571
      vertex 4.45779 -0.433791 7.18915
    endloop
  endfacet
  facet normal 0.978148 -0.207912 0
    outer loop
      vertex 4.50293 -0.221428 7.12252
      vertex 4.31649 -1.09859 8.25571
      vertex 4.48001 -0.329299 7.15045
    endloop
  endfacet
  facet normal 0.978148 -0.207912 0
    outer loop
      vertex 4.52635 -0.111285 7.10564
      vertex 4.31649 -1.09859 8.25571
      vertex 4.50293 -0.221428 7.12252
    endloop
  endfacet
  facet normal 0.978148 -0.207912 0
    outer loop
      vertex 4.55 0 7.1
      vertex 4.31649 -1.09859 8.25571
      vertex 4.52635 -0.111285 7.10564
    endloop
  endfacet
  facet normal 0.978148 -0.207912 0
    outer loop
      vertex 4.55 0 9.3
      vertex 4.31649 -1.09859 8.25571
      vertex 4.55 0 7.1
    endloop
  endfacet
  facet normal 0.978148 -0.207912 0
    outer loop
      vertex 4.52635 -0.111285 9.29436
      vertex 4.31649 -1.09859 8.25571
      vertex 4.55 0 9.3
    endloop
  endfacet
  facet normal 0.978148 -0.207912 0
    outer loop
      vertex 4.50293 -0.221428 9.27748
      vertex 4.31649 -1.09859 8.25571
      vertex 4.52635 -0.111285 9.29436
    endloop
  endfacet
  facet normal 0.978148 -0.207912 0
    outer loop
      vertex 4.48001 -0.329299 9.24955
      vertex 4.31649 -1.09859 8.25571
      vertex 4.50293 -0.221428 9.27748
    endloop
  endfacet
  facet normal 0.978148 -0.207912 0
    outer loop
      vertex 4.45779 -0.433791 9.21085
      vertex 4.31649 -1.09859 8.25571
      vertex 4.48001 -0.329299 9.24955
    endloop
  endfacet
  facet normal 0.978148 -0.207912 0
    outer loop
      vertex 4.43653 -0.533832 9.16178
      vertex 4.31649 -1.09859 8.25571
      vertex 4.45779 -0.433791 9.21085
    endloop
  endfacet
  facet normal 0.978148 -0.207912 0
    outer loop
      vertex 4.41643 -0.628395 9.10284
      vertex 4.31649 -1.09859 8.25571
      vertex 4.43653 -0.533832 9.16178
    endloop
  endfacet
  facet normal 0.978148 -0.207912 0
    outer loop
      vertex 4.3977 -0.71651 9.03463
      vertex 4.31649 -1.09859 8.25571
      vertex 4.41643 -0.628395 9.10284
    endloop
  endfacet
  facet normal 0.978148 -0.207912 0
    outer loop
      vertex 4.38053 -0.797272 8.95786
      vertex 4.31649 -1.09859 8.25571
      vertex 4.3977 -0.71651 9.03463
    endloop
  endfacet
  facet normal 0.978148 -0.207912 0
    outer loop
      vertex 4.36511 -0.869853 8.87332
      vertex 4.31649 -1.09859 8.25571
      vertex 4.38053 -0.797272 8.95786
    endloop
  endfacet
  facet normal 0.978148 -0.207912 0
    outer loop
      vertex 4.35158 -0.933509 8.78186
      vertex 4.31649 -1.09859 8.25571
      vertex 4.36511 -0.869853 8.87332
    endloop
  endfacet
  facet normal 0.978148 -0.207912 0
    outer loop
      vertex 4.34008 -0.987585 8.68443
      vertex 4.31649 -1.09859 8.25571
      vertex 4.35158 -0.933509 8.78186
    endloop
  endfacet
  facet normal 0.978148 -0.207912 0
    outer loop
      vertex 4.33074 -1.03153 8.58204
      vertex 4.31649 -1.09859 8.25571
      vertex 4.34008 -0.987585 8.68443
    endloop
  endfacet
  facet normal 0.978148 -0.207912 0
    outer loop
      vertex 4.32365 -1.06488 8.47572
      vertex 4.31649 -1.09859 8.25571
      vertex 4.33074 -1.03153 8.58204
    endloop
  endfacet
  facet normal 0.978148 -0.207912 0
    outer loop
      vertex 4.31888 -1.08732 8.36657
      vertex 4.31649 -1.09859 8.25571
      vertex 4.32365 -1.06488 8.47572
    endloop
  endfacet
  facet normal 0.978148 0.207912 0
    outer loop
      vertex 4.31888 1.08732 8.03343
      vertex 4.31649 1.09859 8.14429
      vertex 4.31649 1.09859 8.25571
    endloop
  endfacet
  facet normal 0.978148 0.207912 0
    outer loop
      vertex 4.32365 1.06488 8.47572
      vertex 4.31888 1.08732 8.03343
      vertex 4.31888 1.08732 8.36657
    endloop
  endfacet
  facet normal 0.978148 0.207912 0
    outer loop
      vertex 4.31888 1.08732 8.36657
      vertex 4.31888 1.08732 8.03343
      vertex 4.31649 1.09859 8.25571
    endloop
  endfacet
  facet normal 0.978148 0.207912 0
    outer loop
      vertex 4.33074 1.03153 8.58204
      vertex 4.31888 1.08732 8.03343
      vertex 4.32365 1.06488 8.47572
    endloop
  endfacet
  facet normal 0.978148 0.207912 0
    outer loop
      vertex 4.34008 0.987585 8.68443
      vertex 4.31888 1.08732 8.03343
      vertex 4.33074 1.03153 8.58204
    endloop
  endfacet
  facet normal 0.978148 0.207912 0
    outer loop
      vertex 4.35158 0.933509 8.78186
      vertex 4.31888 1.08732 8.03343
      vertex 4.34008 0.987585 8.68443
    endloop
  endfacet
  facet normal 0.978148 0.207912 0
    outer loop
      vertex 4.36511 0.869853 8.87332
      vertex 4.31888 1.08732 8.03343
      vertex 4.35158 0.933509 8.78186
    endloop
  endfacet
  facet normal 0.978148 0.207912 0
    outer loop
      vertex 4.38053 0.797272 8.95786
      vertex 4.31888 1.08732 8.03343
      vertex 4.36511 0.869853 8.87332
    endloop
  endfacet
  facet normal 0.978148 0.207912 0
    outer loop
      vertex 4.3977 0.71651 9.03463
      vertex 4.31888 1.08732 8.03343
      vertex 4.38053 0.797272 8.95786
    endloop
  endfacet
  facet normal 0.978148 0.207912 0
    outer loop
      vertex 4.41643 0.628395 9.10284
      vertex 4.31888 1.08732 8.03343
      vertex 4.3977 0.71651 9.03463
    endloop
  endfacet
  facet normal 0.978148 0.207912 0
    outer loop
      vertex 4.43653 0.533832 9.16178
      vertex 4.31888 1.08732 8.03343
      vertex 4.41643 0.628395 9.10284
    endloop
  endfacet
  facet normal 0.978148 0.207912 0
    outer loop
      vertex 4.45779 0.433791 9.21085
      vertex 4.31888 1.08732 8.03343
      vertex 4.43653 0.533832 9.16178
    endloop
  endfacet
  facet normal 0.978148 0.207912 0
    outer loop
      vertex 4.48001 0.329299 9.24955
      vertex 4.31888 1.08732 8.03343
      vertex 4.45779 0.433791 9.21085
    endloop
  endfacet
  facet normal 0.978148 0.207912 0
    outer loop
      vertex 4.50293 0.221428 9.27748
      vertex 4.31888 1.08732 8.03343
      vertex 4.48001 0.329299 9.24955
    endloop
  endfacet
  facet normal 0.978148 0.207912 0
    outer loop
      vertex 4.52635 0.111285 9.29436
      vertex 4.31888 1.08732 8.03343
      vertex 4.50293 0.221428 9.27748
    endloop
  endfacet
  facet normal 0.978148 0.207912 0
    outer loop
      vertex 4.55 0 9.3
      vertex 4.31888 1.08732 8.03343
      vertex 4.52635 0.111285 9.29436
    endloop
  endfacet
  facet normal 0.978148 0.207912 0
    outer loop
      vertex 4.55 0 7.1
      vertex 4.31888 1.08732 8.03343
      vertex 4.55 0 9.3
    endloop
  endfacet
  facet normal 0.978148 0.207912 0
    outer loop
      vertex 4.52635 0.111285 7.10564
      vertex 4.31888 1.08732 8.03343
      vertex 4.55 0 7.1
    endloop
  endfacet
  facet normal 0.978148 0.207912 0
    outer loop
      vertex 4.50293 0.221428 7.12252
      vertex 4.31888 1.08732 8.03343
      vertex 4.52635 0.111285 7.10564
    endloop
  endfacet
  facet normal 0.978148 0.207912 0
    outer loop
      vertex 4.48001 0.329299 7.15045
      vertex 4.31888 1.08732 8.03343
      vertex 4.50293 0.221428 7.12252
    endloop
  endfacet
  facet normal 0.978148 0.207912 0
    outer loop
      vertex 4.45779 0.433791 7.18915
      vertex 4.31888 1.08732 8.03343
      vertex 4.48001 0.329299 7.15045
    endloop
  endfacet
  facet normal 0.978148 0.207912 0
    outer loop
      vertex 4.43653 0.533832 7.23822
      vertex 4.31888 1.08732 8.03343
      vertex 4.45779 0.433791 7.18915
    endloop
  endfacet
  facet normal 0.978148 0.207912 0
    outer loop
      vertex 4.41643 0.628395 7.29716
      vertex 4.31888 1.08732 8.03343
      vertex 4.43653 0.533832 7.23822
    endloop
  endfacet
  facet normal 0.978148 0.207912 0
    outer loop
      vertex 4.3977 0.71651 7.36537
      vertex 4.31888 1.08732 8.03343
      vertex 4.41643 0.628395 7.29716
    endloop
  endfacet
  facet normal 0.978148 0.207912 0
    outer loop
      vertex 4.38053 0.797272 7.44214
      vertex 4.31888 1.08732 8.03343
      vertex 4.3977 0.71651 7.36537
    endloop
  endfacet
  facet normal 0.978148 0.207912 0
    outer loop
      vertex 4.36511 0.869853 7.52668
      vertex 4.31888 1.08732 8.03343
      vertex 4.38053 0.797272 7.44214
    endloop
  endfacet
  facet normal 0.978148 0.207912 0
    outer loop
      vertex 4.35158 0.933509 7.61814
      vertex 4.31888 1.08732 8.03343
      vertex 4.36511 0.869853 7.52668
    endloop
  endfacet
  facet normal 0.978148 0.207912 0
    outer loop
      vertex 4.34008 0.987585 7.71557
      vertex 4.31888 1.08732 8.03343
      vertex 4.35158 0.933509 7.61814
    endloop
  endfacet
  facet normal 0.978148 0.207912 0
    outer loop
      vertex 4.33074 1.03153 7.81796
      vertex 4.31888 1.08732 8.03343
      vertex 4.34008 0.987585 7.71557
    endloop
  endfacet
  facet normal 0.978148 0.207912 0
    outer loop
      vertex 4.32365 1.06488 7.92428
      vertex 4.31888 1.08732 8.03343
      vertex 4.33074 1.03153 7.81796
    endloop
  endfacet
endsolid OpenSCAD_Model
